<svg xmlns="http://www.w3.org/2000/svg" xmlns:xlink="http://www.w3.org/1999/xlink" width="500" zoomAndPan="magnify" viewBox="0 0 375 374.999991" height="500" preserveAspectRatio="xMidYMid meet" version="1.0"><defs><g/><clipPath id="c77b6ed18c"><rect x="0" width="181" y="0" height="375"/></clipPath><clipPath id="2cc37d8f2b"><rect x="0" width="173" y="0" height="375"/></clipPath></defs><g transform="matrix(1, 0, 0, 1, 65, 0)"><g clip-path="url(#c77b6ed18c)"><g fill="#ff4438" fill-opacity="1"><g transform="translate(2.623782, 311.738365)"><g><path d="M 112.15625 -251.34375 L 144.828125 -251.34375 C 148.179688 -251.34375 149.859375 -249.664062 149.859375 -246.3125 L 149.859375 -5.03125 C 149.859375 -1.675781 148.179688 0 144.828125 0 L 113.734375 0 C 110.796875 0 108.910156 -1.359375 108.078125 -4.078125 L 60 -138.234375 L 58.4375 -138.234375 L 58.4375 -5.03125 C 58.4375 -1.675781 56.757812 0 53.40625 0 L 20.734375 0 C 17.378906 0 15.703125 -1.675781 15.703125 -5.03125 L 15.703125 -246.3125 C 15.703125 -249.664062 17.378906 -251.34375 20.734375 -251.34375 L 51.84375 -251.34375 C 54.769531 -251.34375 56.65625 -249.976562 57.5 -247.25 L 105.25 -113.734375 L 107.125 -113.734375 L 107.125 -246.3125 C 107.125 -249.664062 108.800781 -251.34375 112.15625 -251.34375 Z M 112.15625 -251.34375 "/></g></g></g></g></g><g transform="matrix(1, 0, 0, 1, 157, 0)"><g clip-path="url(#2cc37d8f2b)"><g fill="#f5f5f5" fill-opacity="1"><g transform="translate(2.08158, 311.738365)"><g><path d="M 15.703125 -5.03125 L 15.703125 -246.3125 C 15.703125 -249.664062 17.378906 -251.34375 20.734375 -251.34375 L 96.140625 -251.34375 C 111.003906 -251.34375 122.257812 -247.46875 129.90625 -239.71875 C 137.550781 -231.96875 141.375 -220.65625 141.375 -205.78125 L 141.375 -45.234375 C 141.375 -30.578125 137.550781 -19.375 129.90625 -11.625 C 122.257812 -3.875 111.003906 0 96.140625 0 L 20.734375 0 C 17.378906 0 15.703125 -1.675781 15.703125 -5.03125 Z M 58.4375 -41.46875 L 87.34375 -41.46875 C 95.71875 -41.46875 99.90625 -45.65625 99.90625 -54.03125 L 99.90625 -196.984375 C 99.90625 -205.566406 95.71875 -209.859375 87.34375 -209.859375 L 58.4375 -209.859375 Z M 58.4375 -41.46875 "/></g></g></g></g></g></svg>